<?xml version="1.0" encoding="UTF-8" standalone="no"?><svg xmlns="http://www.w3.org/2000/svg" xmlns:xlink="http://www.w3.org/1999/xlink" contentScriptType="application/ecmascript" contentStyleType="text/css" height="1089px" preserveAspectRatio="none" style="width:1166px;height:1089px;" version="1.1" viewBox="0 0 1166 1089" width="1166px" zoomAndPan="magnify"><defs><filter height="300%" id="f7ei3lfhw9n7" width="300%" x="-1" y="-1"><feGaussianBlur result="blurOut" stdDeviation="2.0"/><feColorMatrix in="blurOut" result="blurOut2" type="matrix" values="0 0 0 0 0 0 0 0 0 0 0 0 0 0 0 0 0 0 .4 0"/><feOffset dx="4.0" dy="4.0" in="blurOut2" result="blurOut3"/><feBlend in="SourceGraphic" in2="blurOut3" mode="normal"/></filter></defs><g><!--MD5=[f0862bf7367bcc9d674716c64b321cab]
cluster Vehicle--><polygon fill="#FFFFF0" filter="url(#f7ei3lfhw9n7)" points="16,16,26,6,1149,6,1149,1055,1139,1065,16,1065,16,16" style="stroke:#000000;stroke-width:1.5;"/><line style="stroke:#000000;stroke-width:1.5;" x1="1139" x2="1149" y1="16" y2="6"/><line style="stroke:#000000;stroke-width:1.5;" x1="16" x2="1139" y1="16" y2="16"/><line style="stroke:#000000;stroke-width:1.5;" x1="1139" x2="1139" y1="16" y2="1065"/><text fill="#000000" font-family="sans-serif" font-size="14" font-weight="bold" lengthAdjust="spacing" textLength="52" x="552.5" y="33.5332">Vehicle</text><!--MD5=[10198d4d7d784e6c6cacb524c2dfa621]
cluster VehicleApplicationPlatform--><polygon fill="#4682B4" filter="url(#f7ei3lfhw9n7)" points="48,281,250,281,257,304.6094,568,304.6094,568,557,48,557,48,281" style="stroke:#000000;stroke-width:1.5;"/><line style="stroke:#000000;stroke-width:1.5;" x1="48" x2="257" y1="304.6094" y2="304.6094"/><text fill="#000000" font-family="sans-serif" font-size="14" font-weight="bold" lengthAdjust="spacing" textLength="196" x="52" y="297.5332">Vehicle Application Platform</text><!--MD5=[dccdd26385ac6d673761fb76f1b148b8]
cluster KuksaValIntegration--><polygon fill="#4682B4" filter="url(#f7ei3lfhw9n7)" points="799,263,954,263,961,286.6094,1117,286.6094,1117,557,799,557,799,263" style="stroke:#000000;stroke-width:1.5;"/><line style="stroke:#000000;stroke-width:1.5;" x1="799" x2="961" y1="286.6094" y2="286.6094"/><text fill="#000000" font-family="sans-serif" font-size="14" font-weight="bold" lengthAdjust="spacing" textLength="149" x="803" y="279.5332">Kuksa.val Integration</text><text fill="#000000" font-family="sans-serif" font-size="14" font-style="italic" lengthAdjust="spacing" textLength="69" x="927.5" y="303.1426">«Optional»</text><!--MD5=[7ad693170e71f0fabfb42ab959acc5e7]
cluster VehicleApplications--><polygon fill="#C0C0C0" filter="url(#f7ei3lfhw9n7)" points="291,63,439,63,446,86.6094,567,86.6094,567,214,291,214,291,63" style="stroke:#000000;stroke-width:1.5;"/><line style="stroke:#000000;stroke-width:1.5;" x1="291" x2="446" y1="86.6094" y2="86.6094"/><text fill="#000000" font-family="sans-serif" font-size="14" font-weight="bold" lengthAdjust="spacing" textLength="142" x="295" y="79.5332">Vehicle Applications</text><text fill="#000000" font-family="sans-serif" font-size="14" font-style="italic" lengthAdjust="spacing" textLength="69" x="398.5" y="103.1426">«Example»</text><!--MD5=[7b60f05dda21455886d9f5b65c6e5e9e]
cluster VehicleIntegration--><polygon fill="#C0C0C0" filter="url(#f7ei3lfhw9n7)" points="437,615,576,615,583,638.6094,885,638.6094,885,750,437,750,437,615" style="stroke:#000000;stroke-width:1.5;"/><line style="stroke:#000000;stroke-width:1.5;" x1="437" x2="583" y1="638.6094" y2="638.6094"/><text fill="#000000" font-family="sans-serif" font-size="14" font-weight="bold" lengthAdjust="spacing" textLength="133" x="441" y="631.5332">Vehicle Integration</text><text fill="#000000" font-family="sans-serif" font-size="14" font-style="italic" lengthAdjust="spacing" textLength="91" x="619.5" y="655.1426">«Placeholder»</text><!--MD5=[0b2a6e91f00d0920d5dd90531ded229b]
cluster VehicleCore--><polygon fill="#C0C0C0" filter="url(#f7ei3lfhw9n7)" points="195,800,291,800,298,823.6094,888,823.6094,888,1041,195,1041,195,800" style="stroke:#000000;stroke-width:1.5;"/><line style="stroke:#000000;stroke-width:1.5;" x1="195" x2="298" y1="823.6094" y2="823.6094"/><text fill="#000000" font-family="sans-serif" font-size="14" font-weight="bold" lengthAdjust="spacing" textLength="90" x="199" y="816.5332">Vehicle Core</text><text fill="#000000" font-family="sans-serif" font-size="14" font-style="italic" lengthAdjust="spacing" textLength="69" x="511" y="840.1426">«Example»</text><!--MD5=[90321d3428f34f81b6d3c135b020a40c]
entity ConfigManager--><rect fill="#FEFECE" filter="url(#f7ei3lfhw9n7)" height="65.2188" style="stroke:#A80036;stroke-width:1.5;" width="164" x="380" y="325"/><rect fill="#FEFECE" height="10" style="stroke:#A80036;stroke-width:1.5;" width="15" x="524" y="330"/><rect fill="#FEFECE" height="2" style="stroke:#A80036;stroke-width:1.5;" width="4" x="522" y="332"/><rect fill="#FEFECE" height="2" style="stroke:#A80036;stroke-width:1.5;" width="4" x="522" y="336"/><text fill="#000000" font-family="sans-serif" font-size="14" font-style="italic" lengthAdjust="spacing" textLength="124" x="395" y="359.5332">«DockerContainer»</text><text fill="#000000" font-family="sans-serif" font-size="14" lengthAdjust="spacing" textLength="97" x="408.5" y="377.1426">ConfigManager</text><!--MD5=[f144b33a3f99474ee58069094fb5394a]
entity Pipeline--><rect fill="#FEFECE" filter="url(#f7ei3lfhw9n7)" height="65.2188" style="stroke:#A80036;stroke-width:1.5;" width="164" x="136" y="325"/><rect fill="#FEFECE" height="10" style="stroke:#A80036;stroke-width:1.5;" width="15" x="280" y="330"/><rect fill="#FEFECE" height="2" style="stroke:#A80036;stroke-width:1.5;" width="4" x="278" y="332"/><rect fill="#FEFECE" height="2" style="stroke:#A80036;stroke-width:1.5;" width="4" x="278" y="336"/><text fill="#000000" font-family="sans-serif" font-size="14" font-style="italic" lengthAdjust="spacing" textLength="124" x="151" y="359.5332">«DockerContainer»</text><text fill="#000000" font-family="sans-serif" font-size="14" lengthAdjust="spacing" textLength="50" x="188" y="377.1426">Pipeline</text><!--MD5=[813b17cf9d151d5aa05a8c71a0fcb692]
entity Mosquitto--><rect fill="#FEFECE" filter="url(#f7ei3lfhw9n7)" height="65.2188" style="stroke:#A80036;stroke-width:1.5;" width="164" x="282" y="468"/><rect fill="#FEFECE" height="10" style="stroke:#A80036;stroke-width:1.5;" width="15" x="426" y="473"/><rect fill="#FEFECE" height="2" style="stroke:#A80036;stroke-width:1.5;" width="4" x="424" y="475"/><rect fill="#FEFECE" height="2" style="stroke:#A80036;stroke-width:1.5;" width="4" x="424" y="479"/><text fill="#000000" font-family="sans-serif" font-size="14" font-style="italic" lengthAdjust="spacing" textLength="124" x="297" y="502.5332">«DockerContainer»</text><text fill="#000000" font-family="sans-serif" font-size="14" lengthAdjust="spacing" textLength="61" x="328.5" y="520.1426">Mosquitto</text><!--MD5=[06c3b0eaf2be4bcd34274efe6de56868]
entity if_pb--><ellipse cx="535" cy="500.5" fill="#FEFECE" filter="url(#f7ei3lfhw9n7)" rx="8" ry="8" style="stroke:#A80036;stroke-width:1.5;"/><text fill="#000000" font-family="sans-serif" font-size="14" lengthAdjust="spacing" textLength="70" x="500" y="532.0332">IF_PubSub</text><path d="M106,487.5 L106,513.8516 A0,0 0 0 0 106,513.8516 L202,513.8516 A0,0 0 0 0 202,513.8516 L202,505.5 L281.94,500.5 L202,497.5 L202,497.5 L192,487.5 L106,487.5 A0,0 0 0 0 106,487.5 " fill="#FBFB77" filter="url(#f7ei3lfhw9n7)" style="stroke:#A80036;stroke-width:1.0;"/><path d="M192,487.5 L192,497.5 L202,497.5 L192,487.5 " fill="#FBFB77" style="stroke:#A80036;stroke-width:1.0;"/><text fill="#000000" font-family="sans-serif" font-size="13" lengthAdjust="spacing" textLength="75" x="112" y="505.9951">MQTT broker</text><!--MD5=[b355c7a8ee099c6aed296043aca9976f]
entity Kuksa.val2iotea--><rect fill="#FEFECE" filter="url(#f7ei3lfhw9n7)" height="65.2188" style="stroke:#A80036;stroke-width:1.5;" width="164" x="887" y="325"/><rect fill="#FEFECE" height="10" style="stroke:#A80036;stroke-width:1.5;" width="15" x="1031" y="330"/><rect fill="#FEFECE" height="2" style="stroke:#A80036;stroke-width:1.5;" width="4" x="1029" y="332"/><rect fill="#FEFECE" height="2" style="stroke:#A80036;stroke-width:1.5;" width="4" x="1029" y="336"/><text fill="#000000" font-family="sans-serif" font-size="14" font-style="italic" lengthAdjust="spacing" textLength="124" x="902" y="359.5332">«DockerContainer»</text><text fill="#000000" font-family="sans-serif" font-size="14" lengthAdjust="spacing" textLength="100" x="914" y="377.1426">Kuksa.val2iotea</text><!--MD5=[8a8f5f289808e78242312b0472cbfceb]
entity Kuksa.val--><rect fill="#FEFECE" filter="url(#f7ei3lfhw9n7)" height="65.2188" style="stroke:#A80036;stroke-width:1.5;" width="164" x="929" y="468"/><rect fill="#FEFECE" height="10" style="stroke:#A80036;stroke-width:1.5;" width="15" x="1073" y="473"/><rect fill="#FEFECE" height="2" style="stroke:#A80036;stroke-width:1.5;" width="4" x="1071" y="475"/><rect fill="#FEFECE" height="2" style="stroke:#A80036;stroke-width:1.5;" width="4" x="1071" y="479"/><text fill="#000000" font-family="sans-serif" font-size="14" font-style="italic" lengthAdjust="spacing" textLength="124" x="944" y="502.5332">«DockerContainer»</text><text fill="#000000" font-family="sans-serif" font-size="14" lengthAdjust="spacing" textLength="61" x="975.5" y="520.1426">Kuksa.val</text><!--MD5=[59cc448942b24f4cff635fe70a52597a]
entity if_vss--><ellipse cx="840" cy="500.5" fill="#FEFECE" filter="url(#f7ei3lfhw9n7)" rx="8" ry="8" style="stroke:#A80036;stroke-width:1.5;"/><text fill="#000000" font-family="sans-serif" font-size="14" lengthAdjust="spacing" textLength="90" x="795" y="532.0332">IF_VSSSocket</text><!--MD5=[f75da66b20f8582dda50a152e9304052]
entity TestTalent--><rect fill="#FEFECE" filter="url(#f7ei3lfhw9n7)" height="65.2188" style="stroke:#A80036;stroke-width:1.5;" width="164" x="379" y="125"/><rect fill="#FEFECE" height="10" style="stroke:#A80036;stroke-width:1.5;" width="15" x="523" y="130"/><rect fill="#FEFECE" height="2" style="stroke:#A80036;stroke-width:1.5;" width="4" x="521" y="132"/><rect fill="#FEFECE" height="2" style="stroke:#A80036;stroke-width:1.5;" width="4" x="521" y="136"/><text fill="#000000" font-family="sans-serif" font-size="14" font-style="italic" lengthAdjust="spacing" textLength="124" x="394" y="159.5332">«DockerContainer»</text><text fill="#000000" font-family="sans-serif" font-size="14" lengthAdjust="spacing" textLength="68" x="422" y="177.1426">TestTalent</text><!--MD5=[95b084f0b4a5fb32642db4a95528383a]
entity HALInterface--><rect fill="#FEFECE" filter="url(#f7ei3lfhw9n7)" height="65.2188" style="stroke:#A80036;stroke-width:1.5;" width="164" x="453" y="669"/><rect fill="#FEFECE" height="10" style="stroke:#A80036;stroke-width:1.5;" width="15" x="597" y="674"/><rect fill="#FEFECE" height="2" style="stroke:#A80036;stroke-width:1.5;" width="4" x="595" y="676"/><rect fill="#FEFECE" height="2" style="stroke:#A80036;stroke-width:1.5;" width="4" x="595" y="680"/><text fill="#000000" font-family="sans-serif" font-size="14" font-style="italic" lengthAdjust="spacing" textLength="124" x="468" y="703.5332">«DockerContainer»</text><text fill="#000000" font-family="sans-serif" font-size="14" lengthAdjust="spacing" textLength="81" x="489.5" y="721.1426">HALInterface</text><!--MD5=[c1051dd88fe39b01761c88c27e20d67e]
entity HALInterfaceAdapter--><rect fill="#FEFECE" filter="url(#f7ei3lfhw9n7)" height="65.2188" style="stroke:#A80036;stroke-width:1.5;" width="171" x="697.5" y="669"/><rect fill="#FEFECE" height="10" style="stroke:#A80036;stroke-width:1.5;" width="15" x="848.5" y="674"/><rect fill="#FEFECE" height="2" style="stroke:#A80036;stroke-width:1.5;" width="4" x="846.5" y="676"/><rect fill="#FEFECE" height="2" style="stroke:#A80036;stroke-width:1.5;" width="4" x="846.5" y="680"/><text fill="#000000" font-family="sans-serif" font-size="14" font-style="italic" lengthAdjust="spacing" textLength="124" x="716" y="703.5332">«DockerContainer»</text><text fill="#000000" font-family="sans-serif" font-size="14" lengthAdjust="spacing" textLength="131" x="712.5" y="721.1426">HALInterfaceAdapter</text><!--MD5=[8d5a2bc0fe5ac5ffccf3416d5d508739]
entity SensorA--><rect fill="#FEFECE" filter="url(#f7ei3lfhw9n7)" height="65.2188" style="stroke:#A80036;stroke-width:1.5;" width="101" x="211.5" y="960"/><rect fill="#FEFECE" height="10" style="stroke:#A80036;stroke-width:1.5;" width="15" x="292.5" y="965"/><rect fill="#FEFECE" height="2" style="stroke:#A80036;stroke-width:1.5;" width="4" x="290.5" y="967"/><rect fill="#FEFECE" height="2" style="stroke:#A80036;stroke-width:1.5;" width="4" x="290.5" y="971"/><text fill="#000000" font-family="sans-serif" font-size="14" font-style="italic" lengthAdjust="spacing" textLength="61" x="226.5" y="994.5332">«Sensor»</text><text fill="#000000" font-family="sans-serif" font-size="14" lengthAdjust="spacing" textLength="54" x="230" y="1012.1426">SensorA</text><!--MD5=[4506083807c4f0524e296f6d0ec8f86e]
entity SensorB--><rect fill="#FEFECE" filter="url(#f7ei3lfhw9n7)" height="65.2188" style="stroke:#A80036;stroke-width:1.5;" width="101" x="392.5" y="960"/><rect fill="#FEFECE" height="10" style="stroke:#A80036;stroke-width:1.5;" width="15" x="473.5" y="965"/><rect fill="#FEFECE" height="2" style="stroke:#A80036;stroke-width:1.5;" width="4" x="471.5" y="967"/><rect fill="#FEFECE" height="2" style="stroke:#A80036;stroke-width:1.5;" width="4" x="471.5" y="971"/><text fill="#000000" font-family="sans-serif" font-size="14" font-style="italic" lengthAdjust="spacing" textLength="61" x="407.5" y="994.5332">«Sensor»</text><text fill="#000000" font-family="sans-serif" font-size="14" lengthAdjust="spacing" textLength="54" x="411" y="1012.1426">SensorB</text><!--MD5=[d932dad5689bd62f2561e506905d6070]
entity ActuatorA--><rect fill="#FEFECE" filter="url(#f7ei3lfhw9n7)" height="65.2188" style="stroke:#A80036;stroke-width:1.5;" width="109" x="573.5" y="960"/><rect fill="#FEFECE" height="10" style="stroke:#A80036;stroke-width:1.5;" width="15" x="662.5" y="965"/><rect fill="#FEFECE" height="2" style="stroke:#A80036;stroke-width:1.5;" width="4" x="660.5" y="967"/><rect fill="#FEFECE" height="2" style="stroke:#A80036;stroke-width:1.5;" width="4" x="660.5" y="971"/><text fill="#000000" font-family="sans-serif" font-size="14" font-style="italic" lengthAdjust="spacing" textLength="69" x="588.5" y="994.5332">«Actuator»</text><text fill="#000000" font-family="sans-serif" font-size="14" lengthAdjust="spacing" textLength="62" x="592" y="1012.1426">ActuatorA</text><!--MD5=[5bcd8e9baf3e6553364dbb9fef359b2d]
entity ActuatorB--><rect fill="#FEFECE" filter="url(#f7ei3lfhw9n7)" height="65.2188" style="stroke:#A80036;stroke-width:1.5;" width="109" x="762.5" y="960"/><rect fill="#FEFECE" height="10" style="stroke:#A80036;stroke-width:1.5;" width="15" x="851.5" y="965"/><rect fill="#FEFECE" height="2" style="stroke:#A80036;stroke-width:1.5;" width="4" x="849.5" y="967"/><rect fill="#FEFECE" height="2" style="stroke:#A80036;stroke-width:1.5;" width="4" x="849.5" y="971"/><text fill="#000000" font-family="sans-serif" font-size="14" font-style="italic" lengthAdjust="spacing" textLength="69" x="777.5" y="994.5332">«Actuator»</text><text fill="#000000" font-family="sans-serif" font-size="14" lengthAdjust="spacing" textLength="62" x="781" y="1012.1426">ActuatorB</text><!--MD5=[c54ac06344dfd5517d2cc56073f5db34]
entity CAN--><path d="M510,854 L560,854 C565,854 565,876.6094 565,876.6094 C565,876.6094 565,899.2188 560,899.2188 L510,899.2188 C505,899.2188 505,876.6094 505,876.6094 C505,876.6094 505,854 510,854 " fill="#FEFECE" filter="url(#f7ei3lfhw9n7)" style="stroke:#A80036;stroke-width:1.5;"/><path d="M560,854 C555,854 555,876.6094 555,876.6094 C555,899.2188 560,899.2188 560,899.2188 " fill="none" style="stroke:#A80036;stroke-width:1.5;"/><text fill="#000000" font-family="sans-serif" font-size="14" font-style="italic" lengthAdjust="spacing" textLength="40" x="510" y="873.5332">«Bus»</text><text fill="#000000" font-family="sans-serif" font-size="14" lengthAdjust="spacing" textLength="28" x="516" y="891.1426">CAN</text><!--MD5=[e20fa7cd1e066ac767098b48659e6f4a]
link Mosquitto to if_pb--><path d="M446.16,500.5 C472.77,500.5 499.37,500.5 525.98,500.5 " fill="none" id="Mosquitto-if_pb" style="stroke:#A80036;stroke-width:1.0;"/><!--MD5=[3b1d0aabc134460e34a4c85c7ec8bef5]
link if_vss to Kuksa.val--><path d="M849.02,500.5 C875.59,500.5 902.17,500.5 928.74,500.5 " fill="none" id="if_vss-Kuksa.val" style="stroke:#A80036;stroke-width:1.0;"/><!--MD5=[9d5588618800d33162e0851679155c31]
link CAN to SensorA--><path d="M504.74,890.14 C458.3,909.53 368.93,946.85 312.55,970.39 " fill="none" id="CAN-SensorA" style="stroke:#A80036;stroke-width:1.0;"/><!--MD5=[230c2c1bb351a51f620858d8baa0fdd0]
link CAN to SensorB--><path d="M517.48,899.21 C503.61,916.39 484.05,940.63 468.45,959.96 " fill="none" id="CAN-SensorB" style="stroke:#A80036;stroke-width:1.0;"/><!--MD5=[d0c4d5691aa3b2471a77cb55e0b31c0a]
link CAN to ActuatorA--><path d="M552.71,899.21 C566.73,916.39 586.5,940.63 602.27,959.96 " fill="none" id="CAN-ActuatorA" style="stroke:#A80036;stroke-width:1.0;"/><!--MD5=[2da4554025f59eb204d0bb80faef6745]
link CAN to ActuatorB--><path d="M565.18,889.7 C612.21,908.71 703.68,945.69 762.47,969.46 " fill="none" id="CAN-ActuatorB" style="stroke:#A80036;stroke-width:1.0;"/><!--MD5=[6f92b8cff660345efad64c8ba3428c00]
link TestTalent to if_pb--><path d="M527.7,190.12 C549.75,204.22 571.76,223.12 584,247 C626.88,330.67 566.08,447.51 543.14,486.36 " fill="none" id="TestTalent-to-if_pb" style="stroke:#A80036;stroke-width:1.0;stroke-dasharray:7.0,7.0;"/><polygon fill="#A80036" points="540.29,491.11,548.3504,485.4505,542.8625,486.8225,541.4905,481.3346,540.29,491.11" style="stroke:#A80036;stroke-width:1.0;"/><text fill="#000000" font-family="sans-serif" font-size="13" lengthAdjust="spacing" textLength="21" x="599" y="362.9951">use</text><!--MD5=[5a446cd67a6f2f61e60090f5ed415df3]
link Kuksa.val2iotea to if_vss--><path d="M940.05,390.14 C911.91,420.9 870.66,465.99 851.09,487.38 " fill="none" id="Kuksa.val2iotea-to-if_vss" style="stroke:#A80036;stroke-width:1.0;stroke-dasharray:7.0,7.0;"/><polygon fill="#A80036" points="847.47,491.33,856.4967,487.3906,850.8454,487.6413,850.5947,481.99,847.47,491.33" style="stroke:#A80036;stroke-width:1.0;"/><text fill="#000000" font-family="sans-serif" font-size="13" lengthAdjust="spacing" textLength="21" x="913" y="434.4951">use</text><!--MD5=[4f18cf09783150fa8ddd8bc090bf71bd]
link Kuksa.val2iotea to if_pb--><path d="M886.64,388.76 C885.42,389.18 884.2,389.59 883,390 C754.25,433.81 596.65,481.16 549.18,495.29 " fill="none" id="Kuksa.val2iotea-to-if_pb" style="stroke:#A80036;stroke-width:1.0;stroke-dasharray:7.0,7.0;"/><polygon fill="#A80036" points="544.19,496.78,553.9546,498.0653,548.985,495.363,551.6874,490.3933,544.19,496.78" style="stroke:#A80036;stroke-width:1.0;"/><text fill="#000000" font-family="sans-serif" font-size="13" lengthAdjust="spacing" textLength="21" x="788" y="434.4951">use</text><!--MD5=[4a8edb634f2aa527df53582a59787ab1]
link Pipeline to if_pb--><path d="M300.08,387.56 C354.04,407.74 425.58,436.57 486,468 C498.6,474.56 512.13,483.4 521.77,490.05 " fill="none" id="Pipeline-to-if_pb" style="stroke:#A80036;stroke-width:1.0;stroke-dasharray:7.0,7.0;"/><polygon fill="#A80036" points="525.91,492.94,520.813,484.5126,521.8078,490.0813,516.2391,491.0761,525.91,492.94" style="stroke:#A80036;stroke-width:1.0;"/><text fill="#000000" font-family="sans-serif" font-size="13" lengthAdjust="spacing" textLength="21" x="422" y="434.4951">use</text><!--MD5=[5adff142b5b7e6af2d5ac3cc38d75f94]
link ConfigManager to if_pb--><path d="M478.38,390.14 C494.17,420.64 517.26,465.24 528.45,486.84 " fill="none" id="ConfigManager-to-if_pb" style="stroke:#A80036;stroke-width:1.0;stroke-dasharray:7.0,7.0;"/><polygon fill="#A80036" points="530.77,491.33,530.1846,481.4986,528.4713,486.8897,523.0802,485.1764,530.77,491.33" style="stroke:#A80036;stroke-width:1.0;"/><text fill="#000000" font-family="sans-serif" font-size="13" lengthAdjust="spacing" textLength="21" x="503" y="434.4951">use</text><!--MD5=[c34b21df83aefd80e1cb516b2cf58c9d]
reverse link if_pb to HALInterfaceAdapter--><path d="M548.21,512.1 C584.49,541.21 686.74,623.26 743.61,668.89 " fill="none" id="if_pb-backto-HALInterfaceAdapter" style="stroke:#A80036;stroke-width:1.0;stroke-dasharray:7.0,7.0;"/><polygon fill="#A80036" points="544.12,508.82,548.6373,517.5718,548.0202,511.9487,553.6432,511.3315,544.12,508.82" style="stroke:#A80036;stroke-width:1.0;"/><text fill="#000000" font-family="sans-serif" font-size="13" lengthAdjust="spacing" textLength="21" x="652" y="595.4951">use</text><!--MD5=[9aa814a5f5598e1d293cf4c1a02dc13b]
reverse link if_vss to HALInterfaceAdapter--><path d="M836.3,514.42 C827.44,545.35 804.8,624.41 792.06,668.88 " fill="none" id="if_vss-backto-HALInterfaceAdapter" style="stroke:#A80036;stroke-width:1.0;stroke-dasharray:7.0,7.0;"/><polygon fill="#A80036" points="837.69,509.55,831.3507,517.0874,836.3032,514.3538,839.0368,519.3063,837.69,509.55" style="stroke:#A80036;stroke-width:1.0;"/><text fill="#000000" font-family="sans-serif" font-size="13" lengthAdjust="spacing" textLength="21" x="817" y="595.4951">use</text><!--MD5=[d8015a93c7ade752653ca422fa3b796e]
reverse link if_pb to HALInterface--><path d="M535,514.8 C535,546 535,624.59 535,668.88 " fill="none" id="if_pb-backto-HALInterface" style="stroke:#A80036;stroke-width:1.0;stroke-dasharray:7.0,7.0;"/><polygon fill="#A80036" points="535,509.55,531,518.55,535,514.55,539,518.55,535,509.55" style="stroke:#A80036;stroke-width:1.0;"/><text fill="#000000" font-family="sans-serif" font-size="13" lengthAdjust="spacing" textLength="21" x="536" y="595.4951">use</text><!--MD5=[d831fb973034a31caae954886919da99]
link HALInterface to CAN--><path d="M535,734.23 C535,767.06 535,817.76 535,848.66 " fill="none" id="HALInterface-to-CAN" style="stroke:#A80036;stroke-width:1.0;stroke-dasharray:7.0,7.0;"/><polygon fill="#A80036" points="535,853.82,539,844.82,535,848.82,531,844.82,535,853.82" style="stroke:#A80036;stroke-width:1.0;"/><text fill="#000000" font-family="sans-serif" font-size="13" lengthAdjust="spacing" textLength="21" x="536" y="780.4951">use</text><!--MD5=[7457ff3ddf26c0e0fe4a56d1fc499201]
link VehicleApplications to VehicleApplicationPlatform--><!--MD5=[663b0589fa0fd8ab18f5da04481db8b8]
link VehicleApplicationPlatform to KuksaValIntegration--><text fill="#888888" font-family="sans-serif" font-size="10" lengthAdjust="spacing" textLength="223" x="930" y="1081.3809">Vehicle Edge Version: &lt;no official release yet&gt;</text><!--MD5=[20988d92c31cd13e247fafe5b9d0e8f9]
@startuml
/'
  Copyright (c) 2021 Robert Bosch GmbH

  This Source Code Form is subject to the terms of the Mozilla Public
  License, v. 2.0. If a copy of the MPL was not distributed with this
  file, You can obtain one at https://mozilla.org/MPL/2.0/.

  SPDX-License-Identifier: MPL-2.0
'/

    skinparam backgroundColor #FFFFF
    skinparam handwritten false
    skinparam nodesep 80
    top to bottom direction

    right footer "Vehicle Edge Version: <no official release yet>"

    node Vehicle #Ivory {
        package "Vehicle Application Platform" as VehicleApplicationPlatform #SteelBlue {
            component ConfigManager <<DockerContainer>>
            component Pipeline <<DockerContainer>>
            component Mosquitto <<DockerContainer>>
                interface IF_PubSub as if_pb
                Mosquitto -right- if_pb
                note left of Mosquitto : MQTT broker
        }

        package "Kuksa.val Integration" as KuksaValIntegration <<Optional>> #SteelBlue {
            component [Kuksa.val2iotea] <<DockerContainer>>
            component [Kuksa.val] <<DockerContainer>>
                interface IF_VSSSocket as if_vss
                Kuksa.val -left- if_vss
        }

        package "Vehicle Applications" as VehicleApplications <<Example>>  #Silver {
            component [TestTalent] << DockerContainer >>
        }

        package "Vehicle Integration" as VehicleIntegration <<Placeholder>> #Silver {
            component [HALInterface] <<DockerContainer>>
            component [HALInterfaceAdapter] <<DockerContainer>>
        }

        package "Vehicle Core" as VehicleCore <<Example>> #Silver {
            component SensorA <<Sensor>>
            component SensorB <<Sensor>>
            component ActuatorA <<Actuator>>
            component ActuatorB <<Actuator>>
            queue "CAN" as CAN<<Bus>>

            SensorA -up- CAN
            SensorB -up- CAN
            ActuatorA -up- CAN
            ActuatorB -up- CAN
        }

        ' Set Connections between Components
        TestTalent .down.> if_pb : use
        Kuksa.val2iotea ..> if_vss : use
        Kuksa.val2iotea ..> if_pb : use
        Pipeline ..> if_pb : use
        ConfigManager ..> if_pb : use
        HALInterfaceAdapter .up.> if_pb : use
        HALInterfaceAdapter .up.> if_vss : use
        HALInterface .up.> if_pb : use
        HALInterface .down.> CAN : use

        ' Formatting
        VehicleApplications -[hidden]down-> VehicleApplicationPlatform
        VehicleApplicationPlatform -[hidden]right-> KuksaValIntegration
    }
@enduml

@startuml

    skinparam backgroundColor #FFFFF
    skinparam handwritten false
    skinparam nodesep 80
    top to bottom direction

    right footer "Vehicle Edge Version: <no official release yet>"

    node Vehicle #Ivory {
        package "Vehicle Application Platform" as VehicleApplicationPlatform #SteelBlue {
            component ConfigManager <<DockerContainer>>
            component Pipeline <<DockerContainer>>
            component Mosquitto <<DockerContainer>>
                interface IF_PubSub as if_pb
                Mosquitto -right- if_pb
                note left of Mosquitto : MQTT broker
        }

        package "Kuksa.val Integration" as KuksaValIntegration <<Optional>> #SteelBlue {
            component [Kuksa.val2iotea] <<DockerContainer>>
            component [Kuksa.val] <<DockerContainer>>
                interface IF_VSSSocket as if_vss
                Kuksa.val -left- if_vss
        }

        package "Vehicle Applications" as VehicleApplications <<Example>>  #Silver {
            component [TestTalent] << DockerContainer >>
        }

        package "Vehicle Integration" as VehicleIntegration <<Placeholder>> #Silver {
            component [HALInterface] <<DockerContainer>>
            component [HALInterfaceAdapter] <<DockerContainer>>
        }

        package "Vehicle Core" as VehicleCore <<Example>> #Silver {
            component SensorA <<Sensor>>
            component SensorB <<Sensor>>
            component ActuatorA <<Actuator>>
            component ActuatorB <<Actuator>>
            queue "CAN" as CAN<<Bus>>

            SensorA -up- CAN
            SensorB -up- CAN
            ActuatorA -up- CAN
            ActuatorB -up- CAN
        }

        TestTalent .down.> if_pb : use
        Kuksa.val2iotea ..> if_vss : use
        Kuksa.val2iotea ..> if_pb : use
        Pipeline ..> if_pb : use
        ConfigManager ..> if_pb : use
        HALInterfaceAdapter .up.> if_pb : use
        HALInterfaceAdapter .up.> if_vss : use
        HALInterface .up.> if_pb : use
        HALInterface .down.> CAN : use

        VehicleApplications -[hidden]down-> VehicleApplicationPlatform
        VehicleApplicationPlatform -[hidden]right-> KuksaValIntegration
    }
@enduml

PlantUML version 1.2021.00(Sun Jan 10 11:25:05 CET 2021)
(GPL source distribution)
Java Runtime: Java(TM) SE Runtime Environment
JVM: Java HotSpot(TM) 64-Bit Server VM
Default Encoding: Cp1252
Language: en
Country: US
--></g></svg>