<?xml version="1.0" encoding="UTF-8" standalone="no"?><svg xmlns="http://www.w3.org/2000/svg" xmlns:xlink="http://www.w3.org/1999/xlink" contentScriptType="application/ecmascript" contentStyleType="text/css" height="1071px" preserveAspectRatio="none" style="width:1166px;height:1071px;" version="1.1" viewBox="0 0 1166 1071" width="1166px" zoomAndPan="magnify"><defs><filter height="300%" id="f1oerkm5m8w1d6" width="300%" x="-1" y="-1"><feGaussianBlur result="blurOut" stdDeviation="2.0"/><feColorMatrix in="blurOut" result="blurOut2" type="matrix" values="0 0 0 0 0 0 0 0 0 0 0 0 0 0 0 0 0 0 .4 0"/><feOffset dx="4.0" dy="4.0" in="blurOut2" result="blurOut3"/><feBlend in="SourceGraphic" in2="blurOut3" mode="normal"/></filter></defs><g><!--MD5=[f0862bf7367bcc9d674716c64b321cab]
cluster Vehicle--><polygon fill="#FFFFF0" filter="url(#f1oerkm5m8w1d6)" points="16,16,26,6,1149,6,1149,1037,1139,1047,16,1047,16,16" style="stroke:#000000;stroke-width:1.5;"/><line style="stroke:#000000;stroke-width:1.5;" x1="1139" x2="1149" y1="16" y2="6"/><line style="stroke:#000000;stroke-width:1.5;" x1="16" x2="1139" y1="16" y2="16"/><line style="stroke:#000000;stroke-width:1.5;" x1="1139" x2="1139" y1="16" y2="1047"/><text fill="#000000" font-family="sans-serif" font-size="14" font-weight="bold" lengthAdjust="spacing" textLength="52" x="552.5" y="33.5332">Vehicle</text><!--MD5=[10198d4d7d784e6c6cacb524c2dfa621]
cluster VehicleApplicationPlatform--><polygon fill="#4682B4" filter="url(#f1oerkm5m8w1d6)" points="48,263,250,263,257,286.6094,568,286.6094,568,539,48,539,48,263" style="stroke:#000000;stroke-width:1.5;"/><line style="stroke:#000000;stroke-width:1.5;" x1="48" x2="257" y1="286.6094" y2="286.6094"/><text fill="#000000" font-family="sans-serif" font-size="14" font-weight="bold" lengthAdjust="spacing" textLength="196" x="52" y="279.5332">Vehicle Application Platform</text><!--MD5=[fbaffdd981d11e4523772d56adee6685]
cluster VehicleApplicationPlatformServices--><polygon fill="#4682B4" filter="url(#f1oerkm5m8w1d6)" points="799,263,1067,263,1074,286.6094,1117,286.6094,1117,539,799,539,799,263" style="stroke:#000000;stroke-width:1.5;"/><line style="stroke:#000000;stroke-width:1.5;" x1="799" x2="1074" y1="286.6094" y2="286.6094"/><text fill="#000000" font-family="sans-serif" font-size="14" font-weight="bold" lengthAdjust="spacing" textLength="262" x="803" y="279.5332">Vehicle Application Platform Services</text><!--MD5=[7ad693170e71f0fabfb42ab959acc5e7]
cluster VehicleApplications--><polygon fill="#C0C0C0" filter="url(#f1oerkm5m8w1d6)" points="291,63,439,63,446,86.6094,567,86.6094,567,214,291,214,291,63" style="stroke:#000000;stroke-width:1.5;"/><line style="stroke:#000000;stroke-width:1.5;" x1="291" x2="446" y1="86.6094" y2="86.6094"/><text fill="#000000" font-family="sans-serif" font-size="14" font-weight="bold" lengthAdjust="spacing" textLength="142" x="295" y="79.5332">Vehicle Applications</text><text fill="#000000" font-family="sans-serif" font-size="14" font-style="italic" lengthAdjust="spacing" textLength="69" x="398.5" y="103.1426">«Example»</text><!--MD5=[7b60f05dda21455886d9f5b65c6e5e9e]
cluster VehicleIntegration--><polygon fill="#C0C0C0" filter="url(#f1oerkm5m8w1d6)" points="437,597,576,597,583,620.6094,885,620.6094,885,732,437,732,437,597" style="stroke:#000000;stroke-width:1.5;"/><line style="stroke:#000000;stroke-width:1.5;" x1="437" x2="583" y1="620.6094" y2="620.6094"/><text fill="#000000" font-family="sans-serif" font-size="14" font-weight="bold" lengthAdjust="spacing" textLength="133" x="441" y="613.5332">Vehicle Integration</text><text fill="#000000" font-family="sans-serif" font-size="14" font-style="italic" lengthAdjust="spacing" textLength="91" x="619.5" y="637.1426">«Placeholder»</text><!--MD5=[0b2a6e91f00d0920d5dd90531ded229b]
cluster VehicleCore--><polygon fill="#C0C0C0" filter="url(#f1oerkm5m8w1d6)" points="195,782,291,782,298,805.6094,888,805.6094,888,1023,195,1023,195,782" style="stroke:#000000;stroke-width:1.5;"/><line style="stroke:#000000;stroke-width:1.5;" x1="195" x2="298" y1="805.6094" y2="805.6094"/><text fill="#000000" font-family="sans-serif" font-size="14" font-weight="bold" lengthAdjust="spacing" textLength="90" x="199" y="798.5332">Vehicle Core</text><text fill="#000000" font-family="sans-serif" font-size="14" font-style="italic" lengthAdjust="spacing" textLength="69" x="511" y="822.1426">«Example»</text><!--MD5=[90321d3428f34f81b6d3c135b020a40c]
entity ConfigManager--><rect fill="#FEFECE" filter="url(#f1oerkm5m8w1d6)" height="65.2188" style="stroke:#A80036;stroke-width:1.5;" width="164" x="380" y="307"/><rect fill="#FEFECE" height="10" style="stroke:#A80036;stroke-width:1.5;" width="15" x="524" y="312"/><rect fill="#FEFECE" height="2" style="stroke:#A80036;stroke-width:1.5;" width="4" x="522" y="314"/><rect fill="#FEFECE" height="2" style="stroke:#A80036;stroke-width:1.5;" width="4" x="522" y="318"/><text fill="#000000" font-family="sans-serif" font-size="14" font-style="italic" lengthAdjust="spacing" textLength="124" x="395" y="341.5332">«DockerContainer»</text><text fill="#000000" font-family="sans-serif" font-size="14" lengthAdjust="spacing" textLength="97" x="408.5" y="359.1426">ConfigManager</text><!--MD5=[f144b33a3f99474ee58069094fb5394a]
entity Pipeline--><rect fill="#FEFECE" filter="url(#f1oerkm5m8w1d6)" height="65.2188" style="stroke:#A80036;stroke-width:1.5;" width="164" x="136" y="307"/><rect fill="#FEFECE" height="10" style="stroke:#A80036;stroke-width:1.5;" width="15" x="280" y="312"/><rect fill="#FEFECE" height="2" style="stroke:#A80036;stroke-width:1.5;" width="4" x="278" y="314"/><rect fill="#FEFECE" height="2" style="stroke:#A80036;stroke-width:1.5;" width="4" x="278" y="318"/><text fill="#000000" font-family="sans-serif" font-size="14" font-style="italic" lengthAdjust="spacing" textLength="124" x="151" y="341.5332">«DockerContainer»</text><text fill="#000000" font-family="sans-serif" font-size="14" lengthAdjust="spacing" textLength="50" x="188" y="359.1426">Pipeline</text><!--MD5=[813b17cf9d151d5aa05a8c71a0fcb692]
entity Mosquitto--><rect fill="#FEFECE" filter="url(#f1oerkm5m8w1d6)" height="65.2188" style="stroke:#A80036;stroke-width:1.5;" width="164" x="282" y="450"/><rect fill="#FEFECE" height="10" style="stroke:#A80036;stroke-width:1.5;" width="15" x="426" y="455"/><rect fill="#FEFECE" height="2" style="stroke:#A80036;stroke-width:1.5;" width="4" x="424" y="457"/><rect fill="#FEFECE" height="2" style="stroke:#A80036;stroke-width:1.5;" width="4" x="424" y="461"/><text fill="#000000" font-family="sans-serif" font-size="14" font-style="italic" lengthAdjust="spacing" textLength="124" x="297" y="484.5332">«DockerContainer»</text><text fill="#000000" font-family="sans-serif" font-size="14" lengthAdjust="spacing" textLength="61" x="328.5" y="502.1426">Mosquitto</text><!--MD5=[06c3b0eaf2be4bcd34274efe6de56868]
entity if_pb--><ellipse cx="535" cy="482.5" fill="#FEFECE" filter="url(#f1oerkm5m8w1d6)" rx="8" ry="8" style="stroke:#A80036;stroke-width:1.5;"/><text fill="#000000" font-family="sans-serif" font-size="14" lengthAdjust="spacing" textLength="70" x="500" y="514.0332">IF_PubSub</text><path d="M106,469.5 L106,495.8516 A0,0 0 0 0 106,495.8516 L202,495.8516 A0,0 0 0 0 202,495.8516 L202,487.5 L281.94,482.5 L202,479.5 L202,479.5 L192,469.5 L106,469.5 A0,0 0 0 0 106,469.5 " fill="#FBFB77" filter="url(#f1oerkm5m8w1d6)" style="stroke:#A80036;stroke-width:1.0;"/><path d="M192,469.5 L192,479.5 L202,479.5 L192,469.5 " fill="#FBFB77" style="stroke:#A80036;stroke-width:1.0;"/><text fill="#000000" font-family="sans-serif" font-size="13" lengthAdjust="spacing" textLength="75" x="112" y="487.9951">MQTT broker</text><!--MD5=[1b868dd5140c1ab18ba740e4dfecdc40]
entity VSS2IoTEA--><rect fill="#FEFECE" filter="url(#f1oerkm5m8w1d6)" height="65.2188" style="stroke:#A80036;stroke-width:1.5;" width="164" x="887" y="307"/><rect fill="#FEFECE" height="10" style="stroke:#A80036;stroke-width:1.5;" width="15" x="1031" y="312"/><rect fill="#FEFECE" height="2" style="stroke:#A80036;stroke-width:1.5;" width="4" x="1029" y="314"/><rect fill="#FEFECE" height="2" style="stroke:#A80036;stroke-width:1.5;" width="4" x="1029" y="318"/><text fill="#000000" font-family="sans-serif" font-size="14" font-style="italic" lengthAdjust="spacing" textLength="124" x="902" y="341.5332">«DockerContainer»</text><text fill="#000000" font-family="sans-serif" font-size="14" lengthAdjust="spacing" textLength="73" x="927.5" y="359.1426">VSS2IoTEA</text><!--MD5=[3391a061fc67d73510665ed4f67775ba]
entity KuksaVal--><rect fill="#FEFECE" filter="url(#f1oerkm5m8w1d6)" height="65.2188" style="stroke:#A80036;stroke-width:1.5;" width="164" x="929" y="450"/><rect fill="#FEFECE" height="10" style="stroke:#A80036;stroke-width:1.5;" width="15" x="1073" y="455"/><rect fill="#FEFECE" height="2" style="stroke:#A80036;stroke-width:1.5;" width="4" x="1071" y="457"/><rect fill="#FEFECE" height="2" style="stroke:#A80036;stroke-width:1.5;" width="4" x="1071" y="461"/><text fill="#000000" font-family="sans-serif" font-size="14" font-style="italic" lengthAdjust="spacing" textLength="124" x="944" y="484.5332">«DockerContainer»</text><text fill="#000000" font-family="sans-serif" font-size="14" lengthAdjust="spacing" textLength="59" x="976.5" y="502.1426">KuksaVal</text><!--MD5=[59cc448942b24f4cff635fe70a52597a]
entity if_vss--><ellipse cx="840" cy="482.5" fill="#FEFECE" filter="url(#f1oerkm5m8w1d6)" rx="8" ry="8" style="stroke:#A80036;stroke-width:1.5;"/><text fill="#000000" font-family="sans-serif" font-size="14" lengthAdjust="spacing" textLength="90" x="795" y="514.0332">IF_VSSSocket</text><!--MD5=[f75da66b20f8582dda50a152e9304052]
entity TestTalent--><rect fill="#FEFECE" filter="url(#f1oerkm5m8w1d6)" height="65.2188" style="stroke:#A80036;stroke-width:1.5;" width="164" x="379" y="125"/><rect fill="#FEFECE" height="10" style="stroke:#A80036;stroke-width:1.5;" width="15" x="523" y="130"/><rect fill="#FEFECE" height="2" style="stroke:#A80036;stroke-width:1.5;" width="4" x="521" y="132"/><rect fill="#FEFECE" height="2" style="stroke:#A80036;stroke-width:1.5;" width="4" x="521" y="136"/><text fill="#000000" font-family="sans-serif" font-size="14" font-style="italic" lengthAdjust="spacing" textLength="124" x="394" y="159.5332">«DockerContainer»</text><text fill="#000000" font-family="sans-serif" font-size="14" lengthAdjust="spacing" textLength="68" x="422" y="177.1426">TestTalent</text><!--MD5=[95b084f0b4a5fb32642db4a95528383a]
entity HALInterface--><rect fill="#FEFECE" filter="url(#f1oerkm5m8w1d6)" height="65.2188" style="stroke:#A80036;stroke-width:1.5;" width="164" x="453" y="651"/><rect fill="#FEFECE" height="10" style="stroke:#A80036;stroke-width:1.5;" width="15" x="597" y="656"/><rect fill="#FEFECE" height="2" style="stroke:#A80036;stroke-width:1.5;" width="4" x="595" y="658"/><rect fill="#FEFECE" height="2" style="stroke:#A80036;stroke-width:1.5;" width="4" x="595" y="662"/><text fill="#000000" font-family="sans-serif" font-size="14" font-style="italic" lengthAdjust="spacing" textLength="124" x="468" y="685.5332">«DockerContainer»</text><text fill="#000000" font-family="sans-serif" font-size="14" lengthAdjust="spacing" textLength="81" x="489.5" y="703.1426">HALInterface</text><!--MD5=[c1051dd88fe39b01761c88c27e20d67e]
entity HALInterfaceAdapter--><rect fill="#FEFECE" filter="url(#f1oerkm5m8w1d6)" height="65.2188" style="stroke:#A80036;stroke-width:1.5;" width="171" x="697.5" y="651"/><rect fill="#FEFECE" height="10" style="stroke:#A80036;stroke-width:1.5;" width="15" x="848.5" y="656"/><rect fill="#FEFECE" height="2" style="stroke:#A80036;stroke-width:1.5;" width="4" x="846.5" y="658"/><rect fill="#FEFECE" height="2" style="stroke:#A80036;stroke-width:1.5;" width="4" x="846.5" y="662"/><text fill="#000000" font-family="sans-serif" font-size="14" font-style="italic" lengthAdjust="spacing" textLength="124" x="716" y="685.5332">«DockerContainer»</text><text fill="#000000" font-family="sans-serif" font-size="14" lengthAdjust="spacing" textLength="131" x="712.5" y="703.1426">HALInterfaceAdapter</text><!--MD5=[8d5a2bc0fe5ac5ffccf3416d5d508739]
entity SensorA--><rect fill="#FEFECE" filter="url(#f1oerkm5m8w1d6)" height="65.2188" style="stroke:#A80036;stroke-width:1.5;" width="101" x="211.5" y="942"/><rect fill="#FEFECE" height="10" style="stroke:#A80036;stroke-width:1.5;" width="15" x="292.5" y="947"/><rect fill="#FEFECE" height="2" style="stroke:#A80036;stroke-width:1.5;" width="4" x="290.5" y="949"/><rect fill="#FEFECE" height="2" style="stroke:#A80036;stroke-width:1.5;" width="4" x="290.5" y="953"/><text fill="#000000" font-family="sans-serif" font-size="14" font-style="italic" lengthAdjust="spacing" textLength="61" x="226.5" y="976.5332">«Sensor»</text><text fill="#000000" font-family="sans-serif" font-size="14" lengthAdjust="spacing" textLength="54" x="230" y="994.1426">SensorA</text><!--MD5=[4506083807c4f0524e296f6d0ec8f86e]
entity SensorB--><rect fill="#FEFECE" filter="url(#f1oerkm5m8w1d6)" height="65.2188" style="stroke:#A80036;stroke-width:1.5;" width="101" x="392.5" y="942"/><rect fill="#FEFECE" height="10" style="stroke:#A80036;stroke-width:1.5;" width="15" x="473.5" y="947"/><rect fill="#FEFECE" height="2" style="stroke:#A80036;stroke-width:1.5;" width="4" x="471.5" y="949"/><rect fill="#FEFECE" height="2" style="stroke:#A80036;stroke-width:1.5;" width="4" x="471.5" y="953"/><text fill="#000000" font-family="sans-serif" font-size="14" font-style="italic" lengthAdjust="spacing" textLength="61" x="407.5" y="976.5332">«Sensor»</text><text fill="#000000" font-family="sans-serif" font-size="14" lengthAdjust="spacing" textLength="54" x="411" y="994.1426">SensorB</text><!--MD5=[d932dad5689bd62f2561e506905d6070]
entity ActuatorA--><rect fill="#FEFECE" filter="url(#f1oerkm5m8w1d6)" height="65.2188" style="stroke:#A80036;stroke-width:1.5;" width="109" x="573.5" y="942"/><rect fill="#FEFECE" height="10" style="stroke:#A80036;stroke-width:1.5;" width="15" x="662.5" y="947"/><rect fill="#FEFECE" height="2" style="stroke:#A80036;stroke-width:1.5;" width="4" x="660.5" y="949"/><rect fill="#FEFECE" height="2" style="stroke:#A80036;stroke-width:1.5;" width="4" x="660.5" y="953"/><text fill="#000000" font-family="sans-serif" font-size="14" font-style="italic" lengthAdjust="spacing" textLength="69" x="588.5" y="976.5332">«Actuator»</text><text fill="#000000" font-family="sans-serif" font-size="14" lengthAdjust="spacing" textLength="62" x="592" y="994.1426">ActuatorA</text><!--MD5=[5bcd8e9baf3e6553364dbb9fef359b2d]
entity ActuatorB--><rect fill="#FEFECE" filter="url(#f1oerkm5m8w1d6)" height="65.2188" style="stroke:#A80036;stroke-width:1.5;" width="109" x="762.5" y="942"/><rect fill="#FEFECE" height="10" style="stroke:#A80036;stroke-width:1.5;" width="15" x="851.5" y="947"/><rect fill="#FEFECE" height="2" style="stroke:#A80036;stroke-width:1.5;" width="4" x="849.5" y="949"/><rect fill="#FEFECE" height="2" style="stroke:#A80036;stroke-width:1.5;" width="4" x="849.5" y="953"/><text fill="#000000" font-family="sans-serif" font-size="14" font-style="italic" lengthAdjust="spacing" textLength="69" x="777.5" y="976.5332">«Actuator»</text><text fill="#000000" font-family="sans-serif" font-size="14" lengthAdjust="spacing" textLength="62" x="781" y="994.1426">ActuatorB</text><!--MD5=[c54ac06344dfd5517d2cc56073f5db34]
entity CAN--><path d="M510,836 L560,836 C565,836 565,858.6094 565,858.6094 C565,858.6094 565,881.2188 560,881.2188 L510,881.2188 C505,881.2188 505,858.6094 505,858.6094 C505,858.6094 505,836 510,836 " fill="#FEFECE" filter="url(#f1oerkm5m8w1d6)" style="stroke:#A80036;stroke-width:1.5;"/><path d="M560,836 C555,836 555,858.6094 555,858.6094 C555,881.2188 560,881.2188 560,881.2188 " fill="none" style="stroke:#A80036;stroke-width:1.5;"/><text fill="#000000" font-family="sans-serif" font-size="14" font-style="italic" lengthAdjust="spacing" textLength="40" x="510" y="855.5332">«Bus»</text><text fill="#000000" font-family="sans-serif" font-size="14" lengthAdjust="spacing" textLength="28" x="516" y="873.1426">CAN</text><!--MD5=[e20fa7cd1e066ac767098b48659e6f4a]
link Mosquitto to if_pb--><path d="M446.16,482.5 C472.77,482.5 499.37,482.5 525.98,482.5 " fill="none" id="Mosquitto-if_pb" style="stroke:#A80036;stroke-width:1.0;"/><!--MD5=[fcfb421a622a937cd9efe4c7944292cf]
link if_vss to KuksaVal--><path d="M849.02,482.5 C875.59,482.5 902.17,482.5 928.74,482.5 " fill="none" id="if_vss-KuksaVal" style="stroke:#A80036;stroke-width:1.0;"/><!--MD5=[9d5588618800d33162e0851679155c31]
link CAN to SensorA--><path d="M504.74,872.14 C458.3,891.53 368.93,928.85 312.55,952.39 " fill="none" id="CAN-SensorA" style="stroke:#A80036;stroke-width:1.0;"/><!--MD5=[230c2c1bb351a51f620858d8baa0fdd0]
link CAN to SensorB--><path d="M517.48,881.21 C503.61,898.39 484.05,922.63 468.45,941.96 " fill="none" id="CAN-SensorB" style="stroke:#A80036;stroke-width:1.0;"/><!--MD5=[d0c4d5691aa3b2471a77cb55e0b31c0a]
link CAN to ActuatorA--><path d="M552.71,881.21 C566.73,898.39 586.5,922.63 602.27,941.96 " fill="none" id="CAN-ActuatorA" style="stroke:#A80036;stroke-width:1.0;"/><!--MD5=[2da4554025f59eb204d0bb80faef6745]
link CAN to ActuatorB--><path d="M565.18,871.7 C612.21,890.71 703.68,927.69 762.47,951.46 " fill="none" id="CAN-ActuatorB" style="stroke:#A80036;stroke-width:1.0;"/><!--MD5=[6f92b8cff660345efad64c8ba3428c00]
link TestTalent to if_pb--><path d="M527.7,190.12 C549.75,204.22 571.76,223.12 584,247 C623.75,324.58 565.57,432.31 543.17,468.82 " fill="none" id="TestTalent-to-if_pb" style="stroke:#A80036;stroke-width:1.0;stroke-dasharray:7.0,7.0;"/><polygon fill="#A80036" points="540.38,473.3,548.5336,467.7757,543.0236,469.056,541.7432,463.5459,540.38,473.3" style="stroke:#A80036;stroke-width:1.0;"/><text fill="#000000" font-family="sans-serif" font-size="13" lengthAdjust="spacing" textLength="21" x="598" y="344.9951">use</text><!--MD5=[30246ea183207a0fe6718e2443d09ef9]
link VSS2IoTEA to if_vss--><path d="M940.05,372.14 C911.91,402.9 870.66,447.99 851.09,469.38 " fill="none" id="VSS2IoTEA-to-if_vss" style="stroke:#A80036;stroke-width:1.0;stroke-dasharray:7.0,7.0;"/><polygon fill="#A80036" points="847.47,473.33,856.4967,469.3906,850.8454,469.6413,850.5947,463.99,847.47,473.33" style="stroke:#A80036;stroke-width:1.0;"/><text fill="#000000" font-family="sans-serif" font-size="13" lengthAdjust="spacing" textLength="84" x="913" y="416.4951">use «optional»</text><!--MD5=[4d797143f1b63428c0ead1dfb348a7ff]
link VSS2IoTEA to if_pb--><path d="M886.64,370.76 C885.42,371.18 884.2,371.59 883,372 C754.25,415.81 596.65,463.16 549.18,477.29 " fill="none" id="VSS2IoTEA-to-if_pb" style="stroke:#A80036;stroke-width:1.0;stroke-dasharray:7.0,7.0;"/><polygon fill="#A80036" points="544.19,478.78,553.9546,480.0653,548.985,477.363,551.6874,472.3933,544.19,478.78" style="stroke:#A80036;stroke-width:1.0;"/><text fill="#000000" font-family="sans-serif" font-size="13" lengthAdjust="spacing" textLength="21" x="788" y="416.4951">use</text><!--MD5=[4a8edb634f2aa527df53582a59787ab1]
link Pipeline to if_pb--><path d="M300.08,369.56 C354.04,389.74 425.58,418.57 486,450 C498.6,456.56 512.13,465.4 521.77,472.05 " fill="none" id="Pipeline-to-if_pb" style="stroke:#A80036;stroke-width:1.0;stroke-dasharray:7.0,7.0;"/><polygon fill="#A80036" points="525.91,474.94,520.813,466.5126,521.8078,472.0813,516.2391,473.0761,525.91,474.94" style="stroke:#A80036;stroke-width:1.0;"/><text fill="#000000" font-family="sans-serif" font-size="13" lengthAdjust="spacing" textLength="21" x="422" y="416.4951">use</text><!--MD5=[5adff142b5b7e6af2d5ac3cc38d75f94]
link ConfigManager to if_pb--><path d="M478.38,372.14 C494.17,402.64 517.26,447.24 528.45,468.84 " fill="none" id="ConfigManager-to-if_pb" style="stroke:#A80036;stroke-width:1.0;stroke-dasharray:7.0,7.0;"/><polygon fill="#A80036" points="530.77,473.33,530.1846,463.4986,528.4713,468.8897,523.0802,467.1764,530.77,473.33" style="stroke:#A80036;stroke-width:1.0;"/><text fill="#000000" font-family="sans-serif" font-size="13" lengthAdjust="spacing" textLength="21" x="503" y="416.4951">use</text><!--MD5=[c34b21df83aefd80e1cb516b2cf58c9d]
reverse link if_pb to HALInterfaceAdapter--><path d="M548.21,494.1 C584.49,523.21 686.74,605.26 743.61,650.89 " fill="none" id="if_pb-backto-HALInterfaceAdapter" style="stroke:#A80036;stroke-width:1.0;stroke-dasharray:7.0,7.0;"/><polygon fill="#A80036" points="544.12,490.82,548.6373,499.5718,548.0202,493.9487,553.6432,493.3315,544.12,490.82" style="stroke:#A80036;stroke-width:1.0;"/><text fill="#000000" font-family="sans-serif" font-size="13" lengthAdjust="spacing" textLength="21" x="652" y="577.4951">use</text><!--MD5=[9aa814a5f5598e1d293cf4c1a02dc13b]
reverse link if_vss to HALInterfaceAdapter--><path d="M836.3,496.42 C827.44,527.35 804.8,606.41 792.06,650.88 " fill="none" id="if_vss-backto-HALInterfaceAdapter" style="stroke:#A80036;stroke-width:1.0;stroke-dasharray:7.0,7.0;"/><polygon fill="#A80036" points="837.69,491.55,831.3507,499.0874,836.3032,496.3538,839.0368,501.3063,837.69,491.55" style="stroke:#A80036;stroke-width:1.0;"/><text fill="#000000" font-family="sans-serif" font-size="13" lengthAdjust="spacing" textLength="84" x="817" y="577.4951">use «optional»</text><!--MD5=[d8015a93c7ade752653ca422fa3b796e]
reverse link if_pb to HALInterface--><path d="M535,496.8 C535,528 535,606.59 535,650.88 " fill="none" id="if_pb-backto-HALInterface" style="stroke:#A80036;stroke-width:1.0;stroke-dasharray:7.0,7.0;"/><polygon fill="#A80036" points="535,491.55,531,500.55,535,496.55,539,500.55,535,491.55" style="stroke:#A80036;stroke-width:1.0;"/><text fill="#000000" font-family="sans-serif" font-size="13" lengthAdjust="spacing" textLength="21" x="536" y="577.4951">use</text><!--MD5=[d831fb973034a31caae954886919da99]
link HALInterface to CAN--><path d="M535,716.23 C535,749.06 535,799.76 535,830.66 " fill="none" id="HALInterface-to-CAN" style="stroke:#A80036;stroke-width:1.0;stroke-dasharray:7.0,7.0;"/><polygon fill="#A80036" points="535,835.82,539,826.82,535,830.82,531,826.82,535,835.82" style="stroke:#A80036;stroke-width:1.0;"/><text fill="#000000" font-family="sans-serif" font-size="13" lengthAdjust="spacing" textLength="21" x="536" y="762.4951">use</text><!--MD5=[7457ff3ddf26c0e0fe4a56d1fc499201]
link VehicleApplications to VehicleApplicationPlatform--><!--MD5=[5b9c78f2415b54ef10856ff67d14843c]
link VehicleApplicationPlatform to VehicleApplicationPlatformServices--><text fill="#888888" font-family="sans-serif" font-size="10" lengthAdjust="spacing" textLength="223" x="930" y="1063.3809">Vehicle Edge Version: &lt;no official release yet&gt;</text><!--MD5=[d5375d4093980419a573d598b2f4411b]
@startuml
/'
  Copyright (c) 2021 Robert Bosch GmbH

  This Source Code Form is subject to the terms of the Mozilla Public
  License, v. 2.0. If a copy of the MPL was not distributed with this
  file, You can obtain one at https://mozilla.org/MPL/2.0/.

  SPDX-License-Identifier: MPL-2.0
'/

    skinparam backgroundColor #FFFFF
    skinparam handwritten false
    skinparam nodesep 80
    top to bottom direction

    right footer "Vehicle Edge Version: <no official release yet>"

    node Vehicle #Ivory {
        package "Vehicle Application Platform" as VehicleApplicationPlatform #SteelBlue {
            component ConfigManager <<DockerContainer>>
            component Pipeline <<DockerContainer>>
            component Mosquitto <<DockerContainer>>
                interface IF_PubSub as if_pb
                Mosquitto -right- if_pb
                note left of Mosquitto : MQTT broker
        }

        package "Vehicle Application Platform Services" as VehicleApplicationPlatformServices #SteelBlue {
            component [VSS2IoTEA] <<DockerContainer>>
            component [KuksaVal] <<DockerContainer>>
                interface IF_VSSSocket as if_vss
                KuksaVal -left- if_vss <<optional>>
        }
  
        package "Vehicle Applications" as VehicleApplications <<Example>>  #Silver {
            component [TestTalent] << DockerContainer >>
        }

        package "Vehicle Integration" as VehicleIntegration <<Placeholder>> #Silver {
            component [HALInterface] <<DockerContainer>>
            component [HALInterfaceAdapter] <<DockerContainer>>
        }

        package "Vehicle Core" as VehicleCore <<Example>> #Silver {
            component SensorA <<Sensor>>
            component SensorB <<Sensor>>
            component ActuatorA <<Actuator>>
            component ActuatorB <<Actuator>>
            queue "CAN" as CAN<<Bus>>

            SensorA -up- CAN
            SensorB -up- CAN
            ActuatorA -up- CAN
            ActuatorB -up- CAN
        }

        ' Set Connections between Components
        TestTalent .down.> if_pb : use
        VSS2IoTEA ..> if_vss : use <<optional>>
        VSS2IoTEA ..> if_pb : use
        Pipeline ..> if_pb : use
        ConfigManager ..> if_pb : use
        HALInterfaceAdapter .up.> if_pb : use
        HALInterfaceAdapter .up.> if_vss : use <<optional>>
        HALInterface .up.> if_pb : use
        HALInterface .down.> CAN : use

        ' Formatting
        VehicleApplications -[hidden]down-> VehicleApplicationPlatform
        VehicleApplicationPlatform -[hidden]right-> VehicleApplicationPlatformServices
    }
@enduml

@startuml

    skinparam backgroundColor #FFFFF
    skinparam handwritten false
    skinparam nodesep 80
    top to bottom direction

    right footer "Vehicle Edge Version: <no official release yet>"

    node Vehicle #Ivory {
        package "Vehicle Application Platform" as VehicleApplicationPlatform #SteelBlue {
            component ConfigManager <<DockerContainer>>
            component Pipeline <<DockerContainer>>
            component Mosquitto <<DockerContainer>>
                interface IF_PubSub as if_pb
                Mosquitto -right- if_pb
                note left of Mosquitto : MQTT broker
        }

        package "Vehicle Application Platform Services" as VehicleApplicationPlatformServices #SteelBlue {
            component [VSS2IoTEA] <<DockerContainer>>
            component [KuksaVal] <<DockerContainer>>
                interface IF_VSSSocket as if_vss
                KuksaVal -left- if_vss <<optional>>
        }
  
        package "Vehicle Applications" as VehicleApplications <<Example>>  #Silver {
            component [TestTalent] << DockerContainer >>
        }

        package "Vehicle Integration" as VehicleIntegration <<Placeholder>> #Silver {
            component [HALInterface] <<DockerContainer>>
            component [HALInterfaceAdapter] <<DockerContainer>>
        }

        package "Vehicle Core" as VehicleCore <<Example>> #Silver {
            component SensorA <<Sensor>>
            component SensorB <<Sensor>>
            component ActuatorA <<Actuator>>
            component ActuatorB <<Actuator>>
            queue "CAN" as CAN<<Bus>>

            SensorA -up- CAN
            SensorB -up- CAN
            ActuatorA -up- CAN
            ActuatorB -up- CAN
        }

        TestTalent .down.> if_pb : use
        VSS2IoTEA ..> if_vss : use <<optional>>
        VSS2IoTEA ..> if_pb : use
        Pipeline ..> if_pb : use
        ConfigManager ..> if_pb : use
        HALInterfaceAdapter .up.> if_pb : use
        HALInterfaceAdapter .up.> if_vss : use <<optional>>
        HALInterface .up.> if_pb : use
        HALInterface .down.> CAN : use

        VehicleApplications -[hidden]down-> VehicleApplicationPlatform
        VehicleApplicationPlatform -[hidden]right-> VehicleApplicationPlatformServices
    }
@enduml

PlantUML version 1.2021.00(Sun Jan 10 11:25:05 CET 2021)
(GPL source distribution)
Java Runtime: OpenJDK Runtime Environment
JVM: OpenJDK 64-Bit Server VM
Default Encoding: Cp1252
Language: en
Country: US
--></g></svg>